HIERARCHY
ROOT Hips
{
	OFFSET	0.00	0.00	0.00
	CHANNELS 6 Xposition Yposition Zposition Zrotation Xrotation Yrotation
	JOINT LeftUpLeg
	{
		OFFSET	 0.126116	-0.065224	 0.014019
		CHANNELS 3 Zrotation Xrotation Yrotation
		JOINT LeftLeg
		{
			OFFSET	 0.000000	 0.569914	 0.000000
			CHANNELS 3 Zrotation Xrotation Yrotation
			JOINT LeftFoot
			{
				OFFSET	 0.000000	 0.544423	 0.000000
				CHANNELS 3 Zrotation Xrotation Yrotation
				JOINT LeftToeBase
				{
					OFFSET	 0.000000	 0.207117	 0.000000
					CHANNELS 3 Zrotation Xrotation Yrotation
					End Site
					{
						OFFSET	 0.000000	 0.207117	 0.000000
					}
				}
			}
		}
	}
	JOINT RightUpLeg
	{
		OFFSET	-0.124023	-0.065224	 0.008373
		CHANNELS 3 Zrotation Xrotation Yrotation
		JOINT RightLeg
		{
			OFFSET	 0.000000	 0.570047	 0.000000
			CHANNELS 3 Zrotation Xrotation Yrotation
			JOINT RightFoot
			{
				OFFSET	 0.000000	 0.544354	 0.000000
				CHANNELS 3 Zrotation Xrotation Yrotation
				JOINT RightToeBase
				{
					OFFSET	 0.000000	 0.207540	 0.000000
					CHANNELS 3 Zrotation Xrotation Yrotation
					End Site
					{
						OFFSET	 0.000000	 0.207540	 0.000000
					}
				}
			}
		}
	}
	JOINT Spine
	{
		OFFSET	 0.000184	 0.117403	 0.007763
		CHANNELS 3 Zrotation Xrotation Yrotation
		JOINT Spine1
		{
			OFFSET	 0.000000	 0.137269	 0.000000
			CHANNELS 3 Zrotation Xrotation Yrotation
			JOINT Spine2
			{
				OFFSET	 0.000000	 0.156879	 0.000000
				CHANNELS 3 Zrotation Xrotation Yrotation
				JOINT LeftShoulder
				{
					OFFSET	 0.080501	 0.160143	 0.002496
					CHANNELS 3 Zrotation Xrotation Yrotation
					JOINT LeftArm
					{
						OFFSET	 0.000000	 0.164363	 0.000000
						CHANNELS 3 Zrotation Xrotation Yrotation
						JOINT LeftForeArm
						{
							OFFSET	 0.000000	 0.364576	 0.000000
							CHANNELS 3 Zrotation Xrotation Yrotation
							JOINT LeftHand
							{
								OFFSET	 0.000000	 0.360812	 0.000000
								CHANNELS 3 Zrotation Xrotation Yrotation
								JOINT LeftHandIndex1
								{
									OFFSET	 0.000000	 0.086006	 0.000000
									CHANNELS 3 Zrotation Xrotation Yrotation
									JOINT LeftHandIndex2
									{
										OFFSET	 0.000000	 0.047237	 0.000000
										CHANNELS 3 Zrotation Xrotation Yrotation
										JOINT LeftHandIndex3
										{
											OFFSET	-0.004284	 0.038165	 0.000551
											CHANNELS 3 Zrotation Xrotation Yrotation
											End Site
											{
												OFFSET	-0.004284	 0.038165	 0.000551
											}
										}
									}
								}
							}
						}
					}
				}
				JOINT Neck
				{
					OFFSET	 0.000000	 0.176489	 0.000000
					CHANNELS 3 Zrotation Xrotation Yrotation
					JOINT Head
					{
						OFFSET	 0.000000	 0.077941	 0.001747
						CHANNELS 3 Zrotation Xrotation Yrotation
						End Site
						{
							OFFSET	 0.000000	 0.077941	 0.001747
						}
					}
				}
				JOINT RightShoulder
				{
					OFFSET	-0.080363	 0.159706	-0.000306
					CHANNELS 3 Zrotation Xrotation Yrotation
					JOINT RightArm
					{
						OFFSET	 0.000000	 0.164196	 0.000000
						CHANNELS 3 Zrotation Xrotation Yrotation
						JOINT RightForeArm
						{
							OFFSET	 0.000000	 0.365611	 0.000000
							CHANNELS 3 Zrotation Xrotation Yrotation
							JOINT RightHand
							{
								OFFSET	 0.000000	 0.360648	 0.000000
								CHANNELS 3 Zrotation Xrotation Yrotation
								JOINT RightHandIndex1
								{
									OFFSET	 0.000000	 0.069977	 0.000000
									CHANNELS 3 Zrotation Xrotation Yrotation
									JOINT RightHandIndex2
									{
										OFFSET	 0.000000	 0.052305	 0.000000
										CHANNELS 3 Zrotation Xrotation Yrotation
										JOINT RightHandIndex3
										{
											OFFSET	 0.009002	 0.042196	 0.000782
											CHANNELS 3 Zrotation Xrotation Yrotation
											End Site
											{
												OFFSET	 0.009002	 0.042196	 0.000782
											}
										}
									}
								}
							}
						}
					}
				}
			}
		}
	}
}
MOTION
Frames:    4
Frame Time: 0.03333334
-0.099641	 1.270075	-0.067124	 11.329640	-3.131875	-168.005100	-158.527700	 19.082040	-11.665850	 4.687811	-17.065400	 7.824759	-0.606242	 51.890150	-7.731631	 1.813959	 34.851150	-2.942114	 168.240500	 10.343800	 52.642590	-3.257591	-36.871090	 8.154632	 8.849599	 61.980720	-6.693305	-3.813724	 52.366580	 4.287488	-4.082131	 3.966793	 16.849090	-7.444561	 4.968003	 6.241429	 5.211832	-5.240410	-8.701078	-100.511700	 3.668063	 93.456450	 68.604200	 40.335160	-20.842050	 10.982050	-0.564822	-0.029522	 47.600730	 16.334680	 0.389155	 3.666589	 54.841210	-2.072537	-8.713304	 61.193210	 8.997561	 6.613971	 34.422070	 0.048641	 3.828883	-10.687490	-2.935144	 6.944179	-7.271799	-8.368217	 84.998840	 20.230780	-74.837280	-0.647670	 21.442950	-14.523880	-72.046540	-2.143444	-1.500175	 38.940780	-15.800050	-5.534477	-4.656589	-12.955110	-0.526978	 11.957560	 4.671253	-1.104168	-8.164695	-4.890352	 0.631837
-0.090019	 1.271138	-0.069952	 12.603630	-4.326406	-162.568400	-158.690900	 20.636250	-7.129805	 3.652889	-13.458450	 8.037527	 1.707347	 50.263180	-8.892288	 1.686330	 33.388000	-2.957842	 168.516100	 12.619300	 52.235000	-3.478611	-38.689770	 6.081070	 8.442712	 60.916990	-3.827497	-4.294222	 55.263000	 4.664110	-4.650323	 4.011853	 18.625740	-7.550533	 6.889677	 7.517065	 5.078528	-6.776577	-10.257100	-101.137400	 3.924943	 93.507020	 69.411080	 37.158680	-24.070370	 5.057088	-0.261391	-0.072326	 52.155160	 19.187570	-1.234127	 3.698122	 55.393350	-2.092932	-8.799028	 61.552770	 9.113165	 6.614709	 34.437630	 0.048560	 3.333100	-11.289920	-3.304420	 5.915359	-7.823079	-11.201150	 98.048320	 26.104640	-95.271290	-44.948520	 24.832910	-0.799758	-18.715360	-0.723275	-0.060608	 16.223870	-0.180153	 1.547967	-4.604188	-14.316510	-0.621535	 11.977440	 2.365974	-0.614645	-8.110175	-6.705180	 0.755590
-0.089695	 1.257593	-0.068251	 12.968540	-5.369446	-161.320500	-159.402000	 25.627980	-6.400637	 5.737996	-20.583180	 9.826131	 4.877816	 56.029380	-11.582560	 1.476394	 30.823810	-2.835012	 168.891600	 13.941070	 50.801770	-3.542921	-39.202340	 5.690989	 9.559502	 66.639110	-3.347219	-3.553223	 50.620720	 4.090433	-4.794669	 4.220039	 21.363300	-7.955968	 8.262043	 8.604929	 5.108668	-7.956635	-10.718730	-101.540600	 3.553337	 93.407260	 63.916310	 38.509000	-17.664180	 4.959104	-0.256262	-0.072751	 44.881980	 20.715490	 15.407620	 3.752871	 55.330140	-2.132510	-8.821052	 61.643510	 9.142728	 6.612086	 34.381860	 0.048856	 3.452965	-11.869060	-3.594336	 5.992734	-8.730460	-12.556340	 100.238100	 27.460760	-97.349710	-55.718370	 29.807250	 2.002255	-4.988073	-0.196012	 0.049992	 14.999390	 1.617220	 2.419800	-4.716191	-3.166820	-0.644005	 12.160040	 16.148900	-3.592607	-8.442225	 8.052191	-0.207131
-0.091259	 1.243530	-0.066151	 13.135290	-6.267954	-160.598700	-160.188300	 29.910100	-6.000148	 7.801035	-27.014200	 11.562740	 8.619029	 61.203130	-14.806380	 1.297825	 28.514430	-2.729321	 169.497000	 14.731910	 49.370510	-3.514933	-38.980160	 5.518522	 10.449620	 72.016390	-3.158946	-2.947666	 46.008790	 3.655841	-4.943444	 4.401776	 23.479630	-8.170022	 8.775107	 9.118326	 5.138056	-8.614896	-11.037340	-101.873800	 3.183462	 93.306950	 57.563000	 40.106300	-10.783080	 4.816057	-0.248886	-0.073383	 37.560380	 19.075200	 31.058290	 3.801862	 55.228130	-2.168023	-8.835241	 61.701610	 9.161744	 6.609554	 34.328010	 0.049139	 3.602352	-12.370410	-3.838562	 6.140123	-9.549331	-13.620400	 101.219600	 28.469290	-97.682200	-57.241890	 35.228080	 1.244223	-5.037801	-0.197929	 0.049825	 19.394790	 2.697268	 2.243239	-4.824423	 7.511308	-0.637017	 13.125010	 29.405160	-6.809510	-8.534233	 22.125940	-1.104192
